<svg version="1.1" xmlns="http://www.w3.org/2000/svg" xmlns:xlink="http://www.w3.org/1999/xlink" width="893.880859375" height="236"><defs/><g><g transform="translate(-331,-389) scale(1,1)"><rect fill="#C0C0C0" stroke="none" x="495" y="583" width="29.422265625000023" height="15" opacity="0.2"/></g><g transform="translate(-331,-389) scale(1,1)"><rect fill="#C0C0C0" stroke="none" x="495" y="597" width="73.5556640625" height="25" opacity="0.2"/></g><g transform="translate(-331,-389) scale(1,1)"><rect fill="#ffffff" stroke="none" x="488" y="591" width="73.5556640625" height="24"/></g><g transform="translate(-331,-389) scale(1,1)"><path fill="none" stroke="#000000" d="M 488 591 L 561.5556640625 591 L 561.5556640625 615 L 488 615 L 488 591 Z Z" stroke-miterlimit="10"/></g><g transform="translate(-331,-389) scale(1,1)"><rect fill="#ffffff" stroke="none" x="488" y="576" width="29.422265625000023" height="15"/></g><g transform="translate(-331,-389) scale(1,1)"><path fill="none" stroke="#000000" d="M 488 576 L 517.422265625 576 L 517.422265625 591 L 488 591 L 488 576 Z Z" stroke-miterlimit="10"/></g><g transform="translate(-331,-389) scale(1,1)"><rect fill="#ffffff" stroke="none" x="488" y="590" width="73.5556640625" height="25"/></g><g transform="translate(-331,-389) scale(1,1)"><path fill="none" stroke="#000000" d="M 488 590 L 561.5556640625 590 L 561.5556640625 615 L 488 615 L 488 590 Z Z" stroke-miterlimit="10"/></g><g transform="translate(-331,-389) scale(1,1)"><g><path fill="none" stroke="none"/><text fill="#000000" stroke="none" font-family="Arial" font-size="13px" font-style="normal" font-weight="bold" text-decoration="none" x="495.77783203125" y="610.5">safeTests</text></g></g><g transform="translate(-331,-389) scale(1,1)"><rect fill="#C0C0C0" stroke="none" x="648" y="581" width="34.97519531249998" height="15" opacity="0.2"/></g><g transform="translate(-331,-389) scale(1,1)"><rect fill="#C0C0C0" stroke="none" x="648" y="595" width="87.43798828125" height="25" opacity="0.2"/></g><g transform="translate(-331,-389) scale(1,1)"><rect fill="#ffffff" stroke="none" x="641" y="589" width="87.43798828125" height="24"/></g><g transform="translate(-331,-389) scale(1,1)"><path fill="none" stroke="#000000" d="M 641 589 L 728.43798828125 589 L 728.43798828125 613 L 641 613 L 641 589 Z Z" stroke-miterlimit="10"/></g><g transform="translate(-331,-389) scale(1,1)"><rect fill="#ffffff" stroke="none" x="641" y="574" width="34.97519531249998" height="15"/></g><g transform="translate(-331,-389) scale(1,1)"><path fill="none" stroke="#000000" d="M 641 574 L 675.9751953125 574 L 675.9751953125 589 L 641 589 L 641 574 Z Z" stroke-miterlimit="10"/></g><g transform="translate(-331,-389) scale(1,1)"><rect fill="#ffffff" stroke="none" x="641" y="588" width="87.43798828125" height="25"/></g><g transform="translate(-331,-389) scale(1,1)"><path fill="none" stroke="#000000" d="M 641 588 L 728.43798828125 588 L 728.43798828125 613 L 641 613 L 641 588 Z Z" stroke-miterlimit="10"/></g><g transform="translate(-331,-389) scale(1,1)"><g><path fill="none" stroke="none"/><text fill="#000000" stroke="none" font-family="Arial" font-size="13px" font-style="normal" font-weight="bold" text-decoration="none" x="649.218994140625" y="608.5">safeUITests</text></g></g><g transform="translate(-331,-389) scale(1,1)"><rect fill="#C0C0C0" stroke="none" x="888" y="557" width="42.46542968749998" height="15" opacity="0.2"/></g><g transform="translate(-331,-389) scale(1,1)"><rect fill="#C0C0C0" stroke="none" x="888" y="571" width="106.16357421875" height="25" opacity="0.2"/></g><g transform="translate(-331,-389) scale(1,1)"><rect fill="#ffffff" stroke="none" x="881" y="565" width="106.16357421875" height="24"/></g><g transform="translate(-331,-389) scale(1,1)"><path fill="none" stroke="#000000" d="M 881 565 L 987.16357421875 565 L 987.16357421875 589 L 881 589 L 881 565 Z Z" stroke-miterlimit="10"/></g><g transform="translate(-331,-389) scale(1,1)"><rect fill="#ffffff" stroke="none" x="881" y="550" width="42.46542968749998" height="15"/></g><g transform="translate(-331,-389) scale(1,1)"><path fill="none" stroke="#000000" d="M 881 550 L 923.4654296875 550 L 923.4654296875 565 L 881 565 L 881 550 Z Z" stroke-miterlimit="10"/></g><g transform="translate(-331,-389) scale(1,1)"><rect fill="#ffffff" stroke="none" x="881" y="564" width="106.16357421875" height="25"/></g><g transform="translate(-331,-389) scale(1,1)"><path fill="none" stroke="#000000" d="M 881 564 L 987.16357421875 564 L 987.16357421875 589 L 881 589 L 881 564 Z Z" stroke-miterlimit="10"/></g><g transform="translate(-331,-389) scale(1,1)"><g><path fill="none" stroke="none"/><text fill="#000000" stroke="none" font-family="Arial" font-size="13px" font-style="normal" font-weight="bold" text-decoration="none" x="890.581787109375" y="584.5">safeUIKitTests</text></g></g><g transform="translate(-331,-389) scale(1,1)"><rect fill="#C0C0C0" stroke="none" x="995" y="406" width="43.376953125" height="15" opacity="0.2"/></g><g transform="translate(-331,-389) scale(1,1)"><rect fill="#C0C0C0" stroke="none" x="995" y="420" width="108.4423828125" height="25" opacity="0.2"/></g><g transform="translate(-331,-389) scale(1,1)"><rect fill="#ffffff" stroke="none" x="988" y="414" width="108.4423828125" height="24"/></g><g transform="translate(-331,-389) scale(1,1)"><path fill="none" stroke="#000000" d="M 988 414 L 1096.4423828125 414 L 1096.4423828125 438 L 988 438 L 988 414 Z Z" stroke-miterlimit="10"/></g><g transform="translate(-331,-389) scale(1,1)"><rect fill="#ffffff" stroke="none" x="988" y="399" width="43.376953125" height="15"/></g><g transform="translate(-331,-389) scale(1,1)"><path fill="none" stroke="#000000" d="M 988 399 L 1031.376953125 399 L 1031.376953125 414 L 988 414 L 988 399 Z Z" stroke-miterlimit="10"/></g><g transform="translate(-331,-389) scale(1,1)"><rect fill="#ffffff" stroke="none" x="988" y="413" width="108.4423828125" height="25"/></g><g transform="translate(-331,-389) scale(1,1)"><path fill="none" stroke="#000000" d="M 988 413 L 1096.4423828125 413 L 1096.4423828125 438 L 988 438 L 988 413 Z Z" stroke-miterlimit="10"/></g><g transform="translate(-331,-389) scale(1,1)"><g><path fill="none" stroke="none"/><text fill="#000000" stroke="none" font-family="Arial" font-size="13px" font-style="normal" font-weight="bold" text-decoration="none" x="998.22119140625" y="433.5">safeUIKitDemo</text></g></g><g transform="translate(-331,-389) scale(1,1)"><rect fill="#C0C0C0" stroke="none" x="1063" y="527" width="63.55234375000009" height="15" opacity="0.2"/></g><g transform="translate(-331,-389) scale(1,1)"><rect fill="#C0C0C0" stroke="none" x="1063" y="541" width="158.880859375" height="25" opacity="0.2"/></g><g transform="translate(-331,-389) scale(1,1)"><rect fill="#ffffff" stroke="none" x="1056" y="535" width="158.880859375" height="24"/></g><g transform="translate(-331,-389) scale(1,1)"><path fill="none" stroke="#000000" d="M 1056 535 L 1214.880859375 535 L 1214.880859375 559 L 1056 559 L 1056 535 Z Z" stroke-miterlimit="10"/></g><g transform="translate(-331,-389) scale(1,1)"><rect fill="#ffffff" stroke="none" x="1056" y="520" width="63.55234375000009" height="15"/></g><g transform="translate(-331,-389) scale(1,1)"><path fill="none" stroke="#000000" d="M 1056 520 L 1119.55234375 520 L 1119.55234375 535 L 1056 535 L 1056 520 Z Z" stroke-miterlimit="10"/></g><g transform="translate(-331,-389) scale(1,1)"><rect fill="#ffffff" stroke="none" x="1056" y="534" width="158.880859375" height="25"/></g><g transform="translate(-331,-389) scale(1,1)"><path fill="none" stroke="#000000" d="M 1056 534 L 1214.880859375 534 L 1214.880859375 559 L 1056 559 L 1056 534 Z Z" stroke-miterlimit="10"/></g><g transform="translate(-331,-389) scale(1,1)"><g><path fill="none" stroke="none"/><text fill="#000000" stroke="none" font-family="Arial" font-size="13px" font-style="normal" font-weight="bold" text-decoration="none" x="1068.4404296875" y="554.5">safeUIKitDemoUITests</text></g></g><g transform="translate(-331,-389) scale(1,1)"><path fill="none" stroke="#000000" d="M 1120 519 L 1058 439" stroke-miterlimit="10" stroke-dasharray="3"/></g><g transform="translate(-331,-389) scale(1,1)"><path fill="none" stroke="#000000" d="M 1067.5526328595715 444.4540998753447 L 1058 439 L 1060.8981004660634 449.6113624803134" stroke-miterlimit="10"/></g><g transform="translate(-331,-389) scale(1,1)"><rect fill="#C0C0C0" stroke="none" x="822" y="419" width="27.842968749999955" height="15" opacity="0.2"/></g><g transform="translate(-331,-389) scale(1,1)"><rect fill="#C0C0C0" stroke="none" x="822" y="433" width="69.607421875" height="25" opacity="0.2"/></g><g transform="translate(-331,-389) scale(1,1)"><rect fill="#ffffff" stroke="none" x="815" y="427" width="69.607421875" height="24"/></g><g transform="translate(-331,-389) scale(1,1)"><path fill="none" stroke="#000000" d="M 815 427 L 884.607421875 427 L 884.607421875 451 L 815 451 L 815 427 Z Z" stroke-miterlimit="10"/></g><g transform="translate(-331,-389) scale(1,1)"><rect fill="#ffffff" stroke="none" x="815" y="412" width="27.842968749999955" height="15"/></g><g transform="translate(-331,-389) scale(1,1)"><path fill="none" stroke="#000000" d="M 815 412 L 842.84296875 412 L 842.84296875 427 L 815 427 L 815 412 Z Z" stroke-miterlimit="10"/></g><g transform="translate(-331,-389) scale(1,1)"><rect fill="#ffffff" stroke="none" x="815" y="426" width="69.607421875" height="25"/></g><g transform="translate(-331,-389) scale(1,1)"><path fill="none" stroke="#000000" d="M 815 426 L 884.607421875 426 L 884.607421875 451 L 815 451 L 815 426 Z Z" stroke-miterlimit="10"/></g><g transform="translate(-331,-389) scale(1,1)"><g><path fill="none" stroke="none"/><text fill="#000000" stroke="none" font-family="Arial" font-size="13px" font-style="normal" font-weight="bold" text-decoration="none" x="822.8037109375" y="446.5">safeUIKit</text></g></g><g transform="translate(-331,-389) scale(1,1)"><path fill="none" stroke="#000000" d="M 987 422 L 886 429" stroke-miterlimit="10" stroke-dasharray="3"/></g><g transform="translate(-331,-389) scale(1,1)"><path fill="none" stroke="#000000" d="M 895.8473039161154 424.09789784034854 L 886 429 L 896.4294050546488 432.4967856963312" stroke-miterlimit="10"/></g><g transform="translate(-331,-389) scale(1,1)"><path fill="none" stroke="#000000" d="M 922 549 L 862 452" stroke-miterlimit="10" stroke-dasharray="3"/></g><g transform="translate(-331,-389) scale(1,1)"><path fill="none" stroke="#000000" d="M 870.9260955873325 458.4284381902452 L 862 452 L 863.7661104825612 462.8572949560831" stroke-miterlimit="10"/></g><g transform="translate(-331,-389) scale(1,1)"><rect fill="#C0C0C0" stroke="none" x="593" y="434" width="19.600000000000023" height="15" opacity="0.2"/></g><g transform="translate(-331,-389) scale(1,1)"><rect fill="#C0C0C0" stroke="none" x="593" y="448" width="49" height="25" opacity="0.2"/></g><g transform="translate(-331,-389) scale(1,1)"><rect fill="#ffffff" stroke="none" x="586" y="442" width="49" height="24"/></g><g transform="translate(-331,-389) scale(1,1)"><path fill="none" stroke="#000000" d="M 586 442 L 635 442 L 635 466 L 586 466 L 586 442 Z Z" stroke-miterlimit="10"/></g><g transform="translate(-331,-389) scale(1,1)"><rect fill="#ffffff" stroke="none" x="586" y="427" width="19.600000000000023" height="15"/></g><g transform="translate(-331,-389) scale(1,1)"><path fill="none" stroke="#000000" d="M 586 427 L 605.6 427 L 605.6 442 L 586 442 L 586 427 Z Z" stroke-miterlimit="10"/></g><g transform="translate(-331,-389) scale(1,1)"><rect fill="#ffffff" stroke="none" x="586" y="441" width="49" height="25"/></g><g transform="translate(-331,-389) scale(1,1)"><path fill="none" stroke="#000000" d="M 586 441 L 635 441 L 635 466 L 586 466 L 586 441 Z Z" stroke-miterlimit="10"/></g><g transform="translate(-331,-389) scale(1,1)"><g><path fill="none" stroke="none"/><text fill="#000000" stroke="none" font-family="Arial" font-size="13px" font-style="normal" font-weight="bold" text-decoration="none" x="598" y="461.5">safe</text></g></g><g transform="translate(-331,-389) scale(1,1)"><path fill="none" stroke="#000000" d="M 636 444 L 814 433" stroke-miterlimit="10" stroke-dasharray="3"/></g><g transform="translate(-331,-389) scale(1,1)"><path fill="none" stroke="#000000" d="M 804.116318598988 437.828337391203 L 814 433 L 803.5970317470808 429.4253319694332" stroke-miterlimit="10"/></g><g transform="translate(-331,-389) scale(1,1)"><path fill="none" stroke="#000000" d="M 536 575 L 598 467" stroke-miterlimit="10" stroke-dasharray="3"/></g><g transform="translate(-331,-389) scale(1,1)"><path fill="none" stroke="#000000" d="M 596.5910515968565 477.90939340189357 L 598 467 L 589.2896169766846 473.717829082906" stroke-miterlimit="10"/></g><g transform="translate(-331,-389) scale(1,1)"><path fill="none" stroke="#000000" d="M 674 573 L 621 467" stroke-miterlimit="10" stroke-dasharray="3"/></g><g transform="translate(-331,-389) scale(1,1)"><path fill="none" stroke="#000000" d="M 629.3099935049528 474.2072191549614 L 621 467 L 621.7797792209975 477.97232629693906" stroke-miterlimit="10"/></g><g transform="translate(-331,-389) scale(1,1)"><rect fill="#C0C0C0" stroke="none" x="348" y="426" width="60.1982421875" height="15" opacity="0.2"/></g><g transform="translate(-331,-389) scale(1,1)"><rect fill="#C0C0C0" stroke="none" x="348" y="440" width="150.49560546875" height="25" opacity="0.2"/></g><g transform="translate(-331,-389) scale(1,1)"><rect fill="#ffffff" stroke="none" x="341" y="434" width="150.49560546875" height="24"/></g><g transform="translate(-331,-389) scale(1,1)"><path fill="none" stroke="#000000" d="M 341 434 L 491.49560546875 434 L 491.49560546875 458 L 341 458 L 341 434 Z Z" stroke-miterlimit="10"/></g><g transform="translate(-331,-389) scale(1,1)"><rect fill="#ffffff" stroke="none" x="341" y="419" width="60.1982421875" height="15"/></g><g transform="translate(-331,-389) scale(1,1)"><path fill="none" stroke="#000000" d="M 341 419 L 401.1982421875 419 L 401.1982421875 434 L 341 434 L 341 419 Z Z" stroke-miterlimit="10"/></g><g transform="translate(-331,-389) scale(1,1)"><rect fill="#ffffff" stroke="none" x="341" y="433" width="150.49560546875" height="25"/></g><g transform="translate(-331,-389) scale(1,1)"><path fill="none" stroke="#000000" d="M 341 433 L 491.49560546875 433 L 491.49560546875 458 L 341 458 L 341 433 Z Z" stroke-miterlimit="10"/></g><g transform="translate(-331,-389) scale(1,1)"><g><path fill="none" stroke="none"/><text fill="#000000" stroke="none" font-family="Arial" font-size="13px" font-style="normal" font-weight="bold" text-decoration="none" x="354.747802734375" y="453.5">CommonTestSupport</text></g></g><g transform="translate(-331,-389) scale(1,1)"><path fill="none" stroke="#000000" d="M 510 575 L 430 459" stroke-miterlimit="10" stroke-dasharray="3"/></g><g transform="translate(-331,-389) scale(1,1)"><path fill="none" stroke="#000000" d="M 439.23501427508035 464.9761619237653 L 430 459 L 432.3043565965006 469.75592584002715" stroke-miterlimit="10"/></g></g></svg>