<svg version="1.1" xmlns="http://www.w3.org/2000/svg" xmlns:xlink="http://www.w3.org/1999/xlink" width="805.77734375" height="593"><defs/><g><g transform="translate(-454,-368) scale(1,1)"><rect fill="#C0C0C0" stroke="none" x="600" y="490" width="79.33515624999995" height="15" opacity="0.2"/></g><g transform="translate(-454,-368) scale(1,1)"><rect fill="#C0C0C0" stroke="none" x="600" y="504" width="198.337890625" height="25" opacity="0.2"/></g><g transform="translate(-454,-368) scale(1,1)"><rect fill="#ffffff" stroke="none" x="593" y="498" width="198.337890625" height="24"/></g><g transform="translate(-454,-368) scale(1,1)"><path fill="none" stroke="#000000" d="M 593 498 L 791.337890625 498 L 791.337890625 522 L 593 522 L 593 498 Z Z" stroke-miterlimit="10"/></g><g transform="translate(-454,-368) scale(1,1)"><rect fill="#ffffff" stroke="none" x="593" y="483" width="79.33515624999995" height="15"/></g><g transform="translate(-454,-368) scale(1,1)"><path fill="none" stroke="#000000" d="M 593 483 L 672.33515625 483 L 672.33515625 498 L 593 498 L 593 483 Z Z" stroke-miterlimit="10"/></g><g transform="translate(-454,-368) scale(1,1)"><rect fill="#ffffff" stroke="none" x="593" y="497" width="198.337890625" height="25"/></g><g transform="translate(-454,-368) scale(1,1)"><path fill="none" stroke="#000000" d="M 593 497 L 791.337890625 497 L 791.337890625 522 L 593 522 L 593 497 Z Z" stroke-miterlimit="10"/></g><g transform="translate(-454,-368) scale(1,1)"><g><path fill="none" stroke="none"/><text fill="#000000" stroke="none" font-family="Arial" font-size="13px" font-style="normal" font-weight="bold" text-decoration="none" x="609.1689453125" y="517.5">IdentityAccessDomainModel</text></g></g><g transform="translate(-454,-368) scale(1,1)"><rect fill="#C0C0C0" stroke="none" x="471" y="647" width="72.92148437499998" height="15" opacity="0.2"/></g><g transform="translate(-454,-368) scale(1,1)"><rect fill="#C0C0C0" stroke="none" x="471" y="661" width="182.3037109375" height="25" opacity="0.2"/></g><g transform="translate(-454,-368) scale(1,1)"><rect fill="#ffffff" stroke="none" x="464" y="655" width="182.3037109375" height="24"/></g><g transform="translate(-454,-368) scale(1,1)"><path fill="none" stroke="#000000" d="M 464 655 L 646.3037109375 655 L 646.3037109375 679 L 464 679 L 464 655 Z Z" stroke-miterlimit="10"/></g><g transform="translate(-454,-368) scale(1,1)"><rect fill="#ffffff" stroke="none" x="464" y="640" width="72.92148437499998" height="15"/></g><g transform="translate(-454,-368) scale(1,1)"><path fill="none" stroke="#000000" d="M 464 640 L 536.921484375 640 L 536.921484375 655 L 464 655 L 464 640 Z Z" stroke-miterlimit="10"/></g><g transform="translate(-454,-368) scale(1,1)"><rect fill="#ffffff" stroke="none" x="464" y="654" width="182.3037109375" height="25"/></g><g transform="translate(-454,-368) scale(1,1)"><path fill="none" stroke="#000000" d="M 464 654 L 646.3037109375 654 L 646.3037109375 679 L 464 679 L 464 654 Z Z" stroke-miterlimit="10"/></g><g transform="translate(-454,-368) scale(1,1)"><g><path fill="none" stroke="none"/><text fill="#000000" stroke="none" font-family="Arial" font-size="13px" font-style="normal" font-weight="bold" text-decoration="none" x="479.65185546875" y="674.5">IdentityAccessApplication</text></g></g><g transform="translate(-454,-368) scale(1,1)"><path fill="none" stroke="#000000" d="M 572 639 L 674 523" stroke-miterlimit="10" stroke-dasharray="3"/></g><g transform="translate(-454,-368) scale(1,1)"><path fill="none" stroke="#000000" d="M 670.4504431545497 533.4115631007509 L 674 523 L 664.1279974130824 527.8521711556675" stroke-miterlimit="10"/></g><g transform="translate(-454,-368) scale(1,1)"><rect fill="#C0C0C0" stroke="none" x="719" y="751" width="87.55410156250002" height="15" opacity="0.2"/></g><g transform="translate(-454,-368) scale(1,1)"><rect fill="#C0C0C0" stroke="none" x="719" y="765" width="218.88525390625" height="25" opacity="0.2"/></g><g transform="translate(-454,-368) scale(1,1)"><rect fill="#ffffff" stroke="none" x="712" y="759" width="218.88525390625" height="24"/></g><g transform="translate(-454,-368) scale(1,1)"><path fill="none" stroke="#000000" d="M 712 759 L 930.88525390625 759 L 930.88525390625 783 L 712 783 L 712 759 Z Z" stroke-miterlimit="10"/></g><g transform="translate(-454,-368) scale(1,1)"><rect fill="#ffffff" stroke="none" x="712" y="744" width="87.55410156250002" height="15"/></g><g transform="translate(-454,-368) scale(1,1)"><path fill="none" stroke="#000000" d="M 712 744 L 799.5541015625 744 L 799.5541015625 759 L 712 759 L 712 744 Z Z" stroke-miterlimit="10"/></g><g transform="translate(-454,-368) scale(1,1)"><rect fill="#ffffff" stroke="none" x="712" y="758" width="218.88525390625" height="25"/></g><g transform="translate(-454,-368) scale(1,1)"><path fill="none" stroke="#000000" d="M 712 758 L 930.88525390625 758 L 930.88525390625 783 L 712 783 L 712 758 Z Z" stroke-miterlimit="10"/></g><g transform="translate(-454,-368) scale(1,1)"><g><path fill="none" stroke="none"/><text fill="#000000" stroke="none" font-family="Arial" font-size="13px" font-style="normal" font-weight="bold" text-decoration="none" x="729.942626953125" y="778.5">IdentityAccessImplementations</text></g></g><g transform="translate(-454,-368) scale(1,1)"><path fill="none" stroke="#000000" d="M 811 743 L 702 523" stroke-miterlimit="10" stroke-dasharray="3"/></g><g transform="translate(-454,-368) scale(1,1)"><path fill="none" stroke="#000000" d="M 710.2836827297973 530.2374443301526 L 702 523 L 702.7398022671265 533.9750941957486" stroke-miterlimit="10"/></g><g transform="translate(-454,-368) scale(1,1)"><rect fill="#C0C0C0" stroke="none" x="501" y="914" width="27.842968749999955" height="15" opacity="0.2"/></g><g transform="translate(-454,-368) scale(1,1)"><rect fill="#C0C0C0" stroke="none" x="501" y="928" width="69.607421875" height="25" opacity="0.2"/></g><g transform="translate(-454,-368) scale(1,1)"><rect fill="#ffffff" stroke="none" x="494" y="922" width="69.607421875" height="24"/></g><g transform="translate(-454,-368) scale(1,1)"><path fill="none" stroke="#000000" d="M 494 922 L 563.607421875 922 L 563.607421875 946 L 494 946 L 494 922 Z Z" stroke-miterlimit="10"/></g><g transform="translate(-454,-368) scale(1,1)"><rect fill="#ffffff" stroke="none" x="494" y="907" width="27.842968749999955" height="15"/></g><g transform="translate(-454,-368) scale(1,1)"><path fill="none" stroke="#000000" d="M 494 907 L 521.84296875 907 L 521.84296875 922 L 494 922 L 494 907 Z Z" stroke-miterlimit="10"/></g><g transform="translate(-454,-368) scale(1,1)"><rect fill="#ffffff" stroke="none" x="494" y="921" width="69.607421875" height="25"/></g><g transform="translate(-454,-368) scale(1,1)"><path fill="none" stroke="#000000" d="M 494 921 L 563.607421875 921 L 563.607421875 946 L 494 946 L 494 921 Z Z" stroke-miterlimit="10"/></g><g transform="translate(-454,-368) scale(1,1)"><g><path fill="none" stroke="none"/><text fill="#000000" stroke="none" font-family="Arial" font-size="13px" font-style="normal" font-weight="bold" text-decoration="none" x="501.8037109375" y="941.5">safeUIKit</text></g></g><g transform="translate(-454,-368) scale(1,1)"><rect fill="#C0C0C0" stroke="none" x="639" y="919" width="19.600000000000023" height="15" opacity="0.2"/></g><g transform="translate(-454,-368) scale(1,1)"><rect fill="#C0C0C0" stroke="none" x="639" y="933" width="49" height="25" opacity="0.2"/></g><g transform="translate(-454,-368) scale(1,1)"><rect fill="#ffffff" stroke="none" x="632" y="927" width="49" height="24"/></g><g transform="translate(-454,-368) scale(1,1)"><path fill="none" stroke="#000000" d="M 632 927 L 681 927 L 681 951 L 632 951 L 632 927 Z Z" stroke-miterlimit="10"/></g><g transform="translate(-454,-368) scale(1,1)"><rect fill="#ffffff" stroke="none" x="632" y="912" width="19.600000000000023" height="15"/></g><g transform="translate(-454,-368) scale(1,1)"><path fill="none" stroke="#000000" d="M 632 912 L 651.6 912 L 651.6 927 L 632 927 L 632 912 Z Z" stroke-miterlimit="10"/></g><g transform="translate(-454,-368) scale(1,1)"><rect fill="#ffffff" stroke="none" x="632" y="926" width="49" height="25"/></g><g transform="translate(-454,-368) scale(1,1)"><path fill="none" stroke="#000000" d="M 632 926 L 681 926 L 681 951 L 632 951 L 632 926 Z Z" stroke-miterlimit="10"/></g><g transform="translate(-454,-368) scale(1,1)"><g><path fill="none" stroke="none"/><text fill="#000000" stroke="none" font-family="Arial" font-size="13px" font-style="normal" font-weight="bold" text-decoration="none" x="644" y="946.5">safe</text></g></g><g transform="translate(-454,-368) scale(1,1)"><path fill="none" stroke="#000000" d="M 631 930 L 565 927" stroke-miterlimit="10" stroke-dasharray="3"/></g><g transform="translate(-454,-368) scale(1,1)"><path fill="none" stroke="#000000" d="M 575.343336822049 923.2562874862449 L 565 927 L 574.9610481122565 931.6666391016781" stroke-miterlimit="10"/></g><g transform="translate(-454,-368) scale(1,1)"><path fill="none" stroke="#000000" d="M 649 911 L 563 680" stroke-miterlimit="10" stroke-dasharray="3"/></g><g transform="translate(-454,-368) scale(1,1)"><path fill="none" stroke="#000000" d="M 570.4907440596567 688.0553555745677 L 563 680 L 562.6007593690704 690.9927524723618" stroke-miterlimit="10"/></g><g transform="translate(-454,-368) scale(1,1)"><path fill="none" stroke="#000000" d="M 658 911 L 690 523" stroke-miterlimit="10" stroke-dasharray="3"/></g><g transform="translate(-454,-368) scale(1,1)"><path fill="none" stroke="#000000" d="M 693.3599511802456 533.4742889050458 L 690 523 L 684.9694035511426 532.7822849768723" stroke-miterlimit="10"/></g><g transform="translate(-454,-368) scale(1,1)"><path fill="none" stroke="#000000" d="M 676 911 L 800 784" stroke-miterlimit="10" stroke-dasharray="3"/></g><g transform="translate(-454,-368) scale(1,1)"><path fill="none" stroke="#000000" d="M 795.912240445106 794.2122584094495 L 800 784 L 789.8883603263232 788.3306746714254" stroke-miterlimit="10"/></g><g transform="translate(-454,-368) scale(1,1)"><rect fill="#C0C0C0" stroke="none" x="1207" y="703" width="19.910937500000045" height="15" opacity="0.2"/></g><g transform="translate(-454,-368) scale(1,1)"><rect fill="#C0C0C0" stroke="none" x="1207" y="717" width="49.77734375" height="25" opacity="0.2"/></g><g transform="translate(-454,-368) scale(1,1)"><rect fill="#ffffff" stroke="none" x="1200" y="711" width="49.77734375" height="24"/></g><g transform="translate(-454,-368) scale(1,1)"><path fill="none" stroke="#000000" d="M 1200 711 L 1249.77734375 711 L 1249.77734375 735 L 1200 735 L 1200 711 Z Z" stroke-miterlimit="10"/></g><g transform="translate(-454,-368) scale(1,1)"><rect fill="#ffffff" stroke="none" x="1200" y="696" width="19.910937500000045" height="15"/></g><g transform="translate(-454,-368) scale(1,1)"><path fill="none" stroke="#000000" d="M 1200 696 L 1219.9109375 696 L 1219.9109375 711 L 1200 711 L 1200 696 Z Z" stroke-miterlimit="10"/></g><g transform="translate(-454,-368) scale(1,1)"><rect fill="#ffffff" stroke="none" x="1200" y="710" width="49.77734375" height="25"/></g><g transform="translate(-454,-368) scale(1,1)"><path fill="none" stroke="#000000" d="M 1200 710 L 1249.77734375 710 L 1249.77734375 735 L 1200 735 L 1200 710 Z Z" stroke-miterlimit="10"/></g><g transform="translate(-454,-368) scale(1,1)"><g><path fill="none" stroke="none"/><text fill="#000000" stroke="none" font-family="Arial" font-size="13px" font-style="normal" font-weight="bold" text-decoration="none" x="1206.888671875" y="730.5">Fabric</text></g></g><g transform="translate(-454,-368) scale(1,1)"><rect fill="#C0C0C0" stroke="none" x="1055" y="727" width="33.3095703125" height="15" opacity="0.2"/></g><g transform="translate(-454,-368) scale(1,1)"><rect fill="#C0C0C0" stroke="none" x="1055" y="741" width="83.27392578125" height="25" opacity="0.2"/></g><g transform="translate(-454,-368) scale(1,1)"><rect fill="#ffffff" stroke="none" x="1048" y="735" width="83.27392578125" height="24"/></g><g transform="translate(-454,-368) scale(1,1)"><path fill="none" stroke="#000000" d="M 1048 735 L 1131.27392578125 735 L 1131.27392578125 759 L 1048 759 L 1048 735 Z Z" stroke-miterlimit="10"/></g><g transform="translate(-454,-368) scale(1,1)"><rect fill="#ffffff" stroke="none" x="1048" y="720" width="33.3095703125" height="15"/></g><g transform="translate(-454,-368) scale(1,1)"><path fill="none" stroke="#000000" d="M 1048 720 L 1081.3095703125 720 L 1081.3095703125 735 L 1048 735 L 1048 720 Z Z" stroke-miterlimit="10"/></g><g transform="translate(-454,-368) scale(1,1)"><rect fill="#ffffff" stroke="none" x="1048" y="734" width="83.27392578125" height="25"/></g><g transform="translate(-454,-368) scale(1,1)"><path fill="none" stroke="#000000" d="M 1048 734 L 1131.27392578125 734 L 1131.27392578125 759 L 1048 759 L 1048 734 Z Z" stroke-miterlimit="10"/></g><g transform="translate(-454,-368) scale(1,1)"><g><path fill="none" stroke="none"/><text fill="#000000" stroke="none" font-family="Arial" font-size="13px" font-style="normal" font-weight="bold" text-decoration="none" x="1057.136962890625" y="754.5">Crashlytics</text></g></g><g transform="translate(-454,-368) scale(1,1)"><path fill="none" stroke="#000000" d="M 1132 731 L 1199 719" stroke-miterlimit="10" stroke-dasharray="3"/></g><g transform="translate(-454,-368) scale(1,1)"><path fill="none" stroke="#000000" d="M 1189.7386409372439 724.9352530115156 L 1199 719 L 1188.2543725512212 716.6480878562221" stroke-miterlimit="10"/></g><g transform="translate(-454,-368) scale(1,1)"><path fill="none" stroke="#000000" d="M 932 753 L 1047 743" stroke-miterlimit="10" stroke-dasharray="3"/></g><g transform="translate(-454,-368) scale(1,1)"><path fill="none" stroke="#000000" d="M 1037.2401997304837 748.0740810694301 L 1047 743 L 1036.5108619139144 739.686696178883" stroke-miterlimit="10"/></g><g transform="translate(-454,-368) scale(1,1)"><path fill="none" stroke="#000000" d="M 682 919 L 1047 758" stroke-miterlimit="10" stroke-dasharray="3"/></g><g transform="translate(-454,-368) scale(1,1)"><path fill="none" stroke="#000000" d="M 1039.4005820075943 765.9529143197133 L 1047 758 L 1036.002840358834 758.2499596501636" stroke-miterlimit="10"/></g><g transform="translate(-454,-368) scale(1,1)"><rect fill="#C0C0C0" stroke="none" x="519" y="385" width="27.446874999999977" height="15" opacity="0.2"/></g><g transform="translate(-454,-368) scale(1,1)"><rect fill="#C0C0C0" stroke="none" x="519" y="399" width="68.6171875" height="25" opacity="0.2"/></g><g transform="translate(-454,-368) scale(1,1)"><rect fill="#ffffff" stroke="none" x="512" y="393" width="68.6171875" height="24"/></g><g transform="translate(-454,-368) scale(1,1)"><path fill="none" stroke="#000000" d="M 512 393 L 580.6171875 393 L 580.6171875 417 L 512 417 L 512 393 Z Z" stroke-miterlimit="10"/></g><g transform="translate(-454,-368) scale(1,1)"><rect fill="#ffffff" stroke="none" x="512" y="378" width="27.446874999999977" height="15"/></g><g transform="translate(-454,-368) scale(1,1)"><path fill="none" stroke="#000000" d="M 512 378 L 539.446875 378 L 539.446875 393 L 512 393 L 512 378 Z Z" stroke-miterlimit="10"/></g><g transform="translate(-454,-368) scale(1,1)"><rect fill="#ffffff" stroke="none" x="512" y="392" width="68.6171875" height="25"/></g><g transform="translate(-454,-368) scale(1,1)"><path fill="none" stroke="#000000" d="M 512 392 L 580.6171875 392 L 580.6171875 417 L 512 417 L 512 392 Z Z" stroke-miterlimit="10"/></g><g transform="translate(-454,-368) scale(1,1)"><g><path fill="none" stroke="none"/><text fill="#000000" stroke="none" font-family="Arial" font-size="13px" font-style="normal" font-weight="bold" text-decoration="none" x="520.30859375" y="412.5">Common</text></g></g><g transform="translate(-454,-368) scale(1,1)"><path fill="none" stroke="#000000" d="M 664 482 L 575 418" stroke-miterlimit="10" stroke-dasharray="3"/></g><g transform="translate(-454,-368) scale(1,1)"><path fill="none" stroke="#000000" d="M 585.7084924807099 420.51558915377296 L 575 418 L 580.793257500083 427.3508377987073" stroke-miterlimit="10"/></g><g transform="translate(-454,-368) scale(1,1)"><path fill="none" stroke="#000000" d="M 554 639 L 547 418" stroke-miterlimit="10" stroke-dasharray="3"/></g><g transform="translate(-454,-368) scale(1,1)"><path fill="none" stroke="#000000" d="M 551.5291410615602 428.024314502473 L 547 418 L 543.1143255961343 428.29084711902493" stroke-miterlimit="10"/></g><g transform="translate(-454,-368) scale(1,1)"><rect fill="#C0C0C0" stroke="none" x="935" y="495" width="27.200000000000045" height="15" opacity="0.2"/></g><g transform="translate(-454,-368) scale(1,1)"><rect fill="#C0C0C0" stroke="none" x="935" y="509" width="68" height="25" opacity="0.2"/></g><g transform="translate(-454,-368) scale(1,1)"><rect fill="#ffffff" stroke="none" x="928" y="503" width="68" height="24"/></g><g transform="translate(-454,-368) scale(1,1)"><path fill="none" stroke="#000000" d="M 928 503 L 996 503 L 996 527 L 928 527 L 928 503 Z Z" stroke-miterlimit="10"/></g><g transform="translate(-454,-368) scale(1,1)"><rect fill="#ffffff" stroke="none" x="928" y="488" width="27.200000000000045" height="15"/></g><g transform="translate(-454,-368) scale(1,1)"><path fill="none" stroke="#000000" d="M 928 488 L 955.2 488 L 955.2 503 L 928 503 L 928 488 Z Z" stroke-miterlimit="10"/></g><g transform="translate(-454,-368) scale(1,1)"><rect fill="#ffffff" stroke="none" x="928" y="502" width="68" height="25"/></g><g transform="translate(-454,-368) scale(1,1)"><path fill="none" stroke="#000000" d="M 928 502 L 996 502 L 996 527 L 928 527 L 928 502 Z Z" stroke-miterlimit="10"/></g><g transform="translate(-454,-368) scale(1,1)"><g><path fill="none" stroke="none"/><text fill="#000000" stroke="none" font-family="Arial" font-size="13px" font-style="normal" font-weight="bold" text-decoration="none" x="943" y="522.5">APIKit</text></g></g><g transform="translate(-454,-368) scale(1,1)"><rect fill="#C0C0C0" stroke="none" x="1015" y="431" width="27.200000000000045" height="15" opacity="0.2"/></g><g transform="translate(-454,-368) scale(1,1)"><rect fill="#C0C0C0" stroke="none" x="1015" y="445" width="68" height="25" opacity="0.2"/></g><g transform="translate(-454,-368) scale(1,1)"><rect fill="#ffffff" stroke="none" x="1008" y="439" width="68" height="24"/></g><g transform="translate(-454,-368) scale(1,1)"><path fill="none" stroke="#000000" d="M 1008 439 L 1076 439 L 1076 463 L 1008 463 L 1008 439 Z Z" stroke-miterlimit="10"/></g><g transform="translate(-454,-368) scale(1,1)"><rect fill="#ffffff" stroke="none" x="1008" y="424" width="27.200000000000045" height="15"/></g><g transform="translate(-454,-368) scale(1,1)"><path fill="none" stroke="#000000" d="M 1008 424 L 1035.2 424 L 1035.2 439 L 1008 439 L 1008 424 Z Z" stroke-miterlimit="10"/></g><g transform="translate(-454,-368) scale(1,1)"><rect fill="#ffffff" stroke="none" x="1008" y="438" width="68" height="25"/></g><g transform="translate(-454,-368) scale(1,1)"><path fill="none" stroke="#000000" d="M 1008 438 L 1076 438 L 1076 463 L 1008 463 L 1008 438 Z Z" stroke-miterlimit="10"/></g><g transform="translate(-454,-368) scale(1,1)"><g><path fill="none" stroke="none"/><text fill="#000000" stroke="none" font-family="Arial" font-size="13px" font-style="normal" font-weight="bold" text-decoration="none" x="1023.5" y="458.5">Result</text></g></g><g transform="translate(-454,-368) scale(1,1)"><rect fill="#C0C0C0" stroke="none" x="1111" y="503" width="34.9853515625" height="15" opacity="0.2"/></g><g transform="translate(-454,-368) scale(1,1)"><rect fill="#C0C0C0" stroke="none" x="1111" y="517" width="87.46337890625" height="25" opacity="0.2"/></g><g transform="translate(-454,-368) scale(1,1)"><rect fill="#ffffff" stroke="none" x="1104" y="511" width="87.46337890625" height="24"/></g><g transform="translate(-454,-368) scale(1,1)"><path fill="none" stroke="#000000" d="M 1104 511 L 1191.46337890625 511 L 1191.46337890625 535 L 1104 535 L 1104 511 Z Z" stroke-miterlimit="10"/></g><g transform="translate(-454,-368) scale(1,1)"><rect fill="#ffffff" stroke="none" x="1104" y="496" width="34.9853515625" height="15"/></g><g transform="translate(-454,-368) scale(1,1)"><path fill="none" stroke="#000000" d="M 1104 496 L 1138.9853515625 496 L 1138.9853515625 511 L 1104 511 L 1104 496 Z Z" stroke-miterlimit="10"/></g><g transform="translate(-454,-368) scale(1,1)"><rect fill="#ffffff" stroke="none" x="1104" y="510" width="87.46337890625" height="25"/></g><g transform="translate(-454,-368) scale(1,1)"><path fill="none" stroke="#000000" d="M 1104 510 L 1191.46337890625 510 L 1191.46337890625 535 L 1104 535 L 1104 510 Z Z" stroke-miterlimit="10"/></g><g transform="translate(-454,-368) scale(1,1)"><g><path fill="none" stroke="none"/><text fill="#000000" stroke="none" font-family="Arial" font-size="13px" font-style="normal" font-weight="bold" text-decoration="none" x="1114.231689453125" y="530.5">CryptoSwift</text></g></g><g transform="translate(-454,-368) scale(1,1)"><rect fill="#C0C0C0" stroke="none" x="951" y="575" width="36.65097656249998" height="15" opacity="0.2"/></g><g transform="translate(-454,-368) scale(1,1)"><rect fill="#C0C0C0" stroke="none" x="951" y="589" width="91.62744140625" height="25" opacity="0.2"/></g><g transform="translate(-454,-368) scale(1,1)"><rect fill="#ffffff" stroke="none" x="944" y="583" width="91.62744140625" height="24"/></g><g transform="translate(-454,-368) scale(1,1)"><path fill="none" stroke="#000000" d="M 944 583 L 1035.62744140625 583 L 1035.62744140625 607 L 944 607 L 944 583 Z Z" stroke-miterlimit="10"/></g><g transform="translate(-454,-368) scale(1,1)"><rect fill="#ffffff" stroke="none" x="944" y="568" width="36.65097656249998" height="15"/></g><g transform="translate(-454,-368) scale(1,1)"><path fill="none" stroke="#000000" d="M 944 568 L 980.6509765625 568 L 980.6509765625 583 L 944 583 L 944 568 Z Z" stroke-miterlimit="10"/></g><g transform="translate(-454,-368) scale(1,1)"><rect fill="#ffffff" stroke="none" x="944" y="582" width="91.62744140625" height="25"/></g><g transform="translate(-454,-368) scale(1,1)"><path fill="none" stroke="#000000" d="M 944 582 L 1035.62744140625 582 L 1035.62744140625 607 L 944 607 L 944 582 Z Z" stroke-miterlimit="10"/></g><g transform="translate(-454,-368) scale(1,1)"><g><path fill="none" stroke="none"/><text fill="#000000" stroke="none" font-family="Arial" font-size="13px" font-style="normal" font-weight="bold" text-decoration="none" x="953.813720703125" y="602.5">EthereumKit</text></g></g><g transform="translate(-454,-368) scale(1,1)"><path fill="none" stroke="#000000" d="M 982 567 L 969 528" stroke-miterlimit="10" stroke-dasharray="3"/></g><g transform="translate(-454,-368) scale(1,1)"><path fill="none" stroke="#000000" d="M 976.2072191549614 536.3099935049528 L 969 528 L 968.2202207790025 538.9723262969391" stroke-miterlimit="10"/></g><g transform="translate(-454,-368) scale(1,1)"><path fill="none" stroke="#000000" d="M 987 487 L 1016 464" stroke-miterlimit="10" stroke-dasharray="3"/></g><g transform="translate(-454,-368) scale(1,1)"><path fill="none" stroke="#000000" d="M 1010.6533399051674 473.6131797980858 L 1016 464 L 1005.4217957662524 467.0168850142364" stroke-miterlimit="10"/></g><g transform="translate(-454,-368) scale(1,1)"><path fill="none" stroke="#000000" d="M 1033 567 L 1103 535" stroke-miterlimit="10" stroke-dasharray="3"/></g><g transform="translate(-454,-368) scale(1,1)"><path fill="none" stroke="#000000" d="M 1095.5074547063975 543.0536802161071 L 1103 535 L 1092.007158520229 535.3967823088636" stroke-miterlimit="10"/></g><g transform="translate(-454,-368) scale(1,1)"><path fill="none" stroke="#000000" d="M 840 743 L 969 608" stroke-miterlimit="10" stroke-dasharray="3"/></g><g transform="translate(-454,-368) scale(1,1)"><path fill="none" stroke="#000000" d="M 965.0224792467553 618.2556973754839 L 969 608 L 958.9355949430687 612.4393412630723" stroke-miterlimit="10"/></g><g transform="translate(-454,-368) scale(1,1)"><path fill="none" stroke="#000000" d="M 770 743 L 609 680" stroke-miterlimit="10" stroke-dasharray="3"/></g><g transform="translate(-454,-368) scale(1,1)"><path fill="none" stroke="#000000" d="M 619.99786311179 679.7831890816208 L 609 680 L 616.9299720555293 687.6233551142868" stroke-miterlimit="10"/></g></g></svg>