<svg version="1.1" xmlns="http://www.w3.org/2000/svg" xmlns:xlink="http://www.w3.org/1999/xlink" width="546" height="395"><defs/><g><g transform="translate(-902,-422) scale(1,1)"><rect fill="#C0C0C0" stroke="none" x="919" y="439" width="44.39999999999998" height="15" opacity="0.2"/></g><g transform="translate(-902,-422) scale(1,1)"><rect fill="#C0C0C0" stroke="none" x="919" y="453" width="111" height="25" opacity="0.2"/></g><g transform="translate(-902,-422) scale(1,1)"><rect fill="#ffffff" stroke="none" x="912" y="447" width="111" height="24"/></g><g transform="translate(-902,-422) scale(1,1)"><path fill="none" stroke="#000000" d="M 912 447 L 1023 447 L 1023 471 L 912 471 L 912 447 Z Z" stroke-miterlimit="10"/></g><g transform="translate(-902,-422) scale(1,1)"><rect fill="#ffffff" stroke="none" x="912" y="432" width="44.39999999999998" height="15"/></g><g transform="translate(-902,-422) scale(1,1)"><path fill="none" stroke="#000000" d="M 912 432 L 956.4 432 L 956.4 447 L 912 447 L 912 432 Z Z" stroke-miterlimit="10"/></g><g transform="translate(-902,-422) scale(1,1)"><rect fill="#ffffff" stroke="none" x="912" y="446" width="111" height="25"/></g><g transform="translate(-902,-422) scale(1,1)"><path fill="none" stroke="#000000" d="M 912 446 L 1023 446 L 1023 471 L 912 471 L 912 446 Z Z" stroke-miterlimit="10"/></g><g transform="translate(-902,-422) scale(1,1)"><g><path fill="none" stroke="none"/><text fill="#000000" stroke="none" font-family="Arial" font-size="13px" font-style="normal" font-weight="bold" text-decoration="none" x="920" y="466.5">A_DomainModel</text></g></g><g transform="translate(-902,-422) scale(1,1)"><rect fill="#C0C0C0" stroke="none" x="919" y="551" width="38.39999999999998" height="15" opacity="0.2"/></g><g transform="translate(-902,-422) scale(1,1)"><rect fill="#C0C0C0" stroke="none" x="919" y="565" width="96" height="25" opacity="0.2"/></g><g transform="translate(-902,-422) scale(1,1)"><rect fill="#ffffff" stroke="none" x="912" y="559" width="96" height="24"/></g><g transform="translate(-902,-422) scale(1,1)"><path fill="none" stroke="#000000" d="M 912 559 L 1008 559 L 1008 583 L 912 583 L 912 559 Z Z" stroke-miterlimit="10"/></g><g transform="translate(-902,-422) scale(1,1)"><rect fill="#ffffff" stroke="none" x="912" y="544" width="38.39999999999998" height="15"/></g><g transform="translate(-902,-422) scale(1,1)"><path fill="none" stroke="#000000" d="M 912 544 L 950.4 544 L 950.4 559 L 912 559 L 912 544 Z Z" stroke-miterlimit="10"/></g><g transform="translate(-902,-422) scale(1,1)"><rect fill="#ffffff" stroke="none" x="912" y="558" width="96" height="25"/></g><g transform="translate(-902,-422) scale(1,1)"><path fill="none" stroke="#000000" d="M 912 558 L 1008 558 L 1008 583 L 912 583 L 912 558 Z Z" stroke-miterlimit="10"/></g><g transform="translate(-902,-422) scale(1,1)"><g><path fill="none" stroke="none"/><text fill="#000000" stroke="none" font-family="Arial" font-size="13px" font-style="normal" font-weight="bold" text-decoration="none" x="920" y="578.5">A_Application</text></g></g><g transform="translate(-902,-422) scale(1,1)"><rect fill="#C0C0C0" stroke="none" x="919" y="679" width="42.39999999999998" height="15" opacity="0.2"/></g><g transform="translate(-902,-422) scale(1,1)"><rect fill="#C0C0C0" stroke="none" x="919" y="693" width="106" height="25" opacity="0.2"/></g><g transform="translate(-902,-422) scale(1,1)"><rect fill="#ffffff" stroke="none" x="912" y="687" width="106" height="24"/></g><g transform="translate(-902,-422) scale(1,1)"><path fill="none" stroke="#000000" d="M 912 687 L 1018 687 L 1018 711 L 912 711 L 912 687 Z Z" stroke-miterlimit="10"/></g><g transform="translate(-902,-422) scale(1,1)"><rect fill="#ffffff" stroke="none" x="912" y="672" width="42.39999999999998" height="15"/></g><g transform="translate(-902,-422) scale(1,1)"><path fill="none" stroke="#000000" d="M 912 672 L 954.4 672 L 954.4 687 L 912 687 L 912 672 Z Z" stroke-miterlimit="10"/></g><g transform="translate(-902,-422) scale(1,1)"><rect fill="#ffffff" stroke="none" x="912" y="686" width="106" height="25"/></g><g transform="translate(-902,-422) scale(1,1)"><path fill="none" stroke="#000000" d="M 912 686 L 1018 686 L 1018 711 L 912 711 L 912 686 Z Z" stroke-miterlimit="10"/></g><g transform="translate(-902,-422) scale(1,1)"><g><path fill="none" stroke="none"/><text fill="#000000" stroke="none" font-family="Arial" font-size="13px" font-style="normal" font-weight="bold" text-decoration="none" x="918" y="706.5">A_UserInterface</text></g></g><g transform="translate(-902,-422) scale(1,1)"><rect fill="#C0C0C0" stroke="none" x="1143" y="583" width="51.59999999999991" height="15" opacity="0.2"/></g><g transform="translate(-902,-422) scale(1,1)"><rect fill="#C0C0C0" stroke="none" x="1143" y="597" width="129" height="25" opacity="0.2"/></g><g transform="translate(-902,-422) scale(1,1)"><rect fill="#ffffff" stroke="none" x="1136" y="591" width="129" height="24"/></g><g transform="translate(-902,-422) scale(1,1)"><path fill="none" stroke="#000000" d="M 1136 591 L 1265 591 L 1265 615 L 1136 615 L 1136 591 Z Z" stroke-miterlimit="10"/></g><g transform="translate(-902,-422) scale(1,1)"><rect fill="#ffffff" stroke="none" x="1136" y="576" width="51.59999999999991" height="15"/></g><g transform="translate(-902,-422) scale(1,1)"><path fill="none" stroke="#000000" d="M 1136 576 L 1187.6 576 L 1187.6 591 L 1136 591 L 1136 576 Z Z" stroke-miterlimit="10"/></g><g transform="translate(-902,-422) scale(1,1)"><rect fill="#ffffff" stroke="none" x="1136" y="590" width="129" height="25"/></g><g transform="translate(-902,-422) scale(1,1)"><path fill="none" stroke="#000000" d="M 1136 590 L 1265 590 L 1265 615 L 1136 615 L 1136 590 Z Z" stroke-miterlimit="10"/></g><g transform="translate(-902,-422) scale(1,1)"><g><path fill="none" stroke="none"/><text fill="#000000" stroke="none" font-family="Arial" font-size="13px" font-style="normal" font-weight="bold" text-decoration="none" x="1144.5" y="610.5">A_Implementations</text></g></g><g transform="translate(-902,-422) scale(1,1)"><rect fill="#C0C0C0" stroke="none" x="1127" y="775" width="24.40000000000009" height="15" opacity="0.2"/></g><g transform="translate(-902,-422) scale(1,1)"><rect fill="#C0C0C0" stroke="none" x="1127" y="789" width="61" height="25" opacity="0.2"/></g><g transform="translate(-902,-422) scale(1,1)"><rect fill="#ffffff" stroke="none" x="1120" y="783" width="61" height="24"/></g><g transform="translate(-902,-422) scale(1,1)"><path fill="none" stroke="#000000" d="M 1120 783 L 1181 783 L 1181 807 L 1120 807 L 1120 783 Z Z" stroke-miterlimit="10"/></g><g transform="translate(-902,-422) scale(1,1)"><rect fill="#ffffff" stroke="none" x="1120" y="768" width="24.40000000000009" height="15"/></g><g transform="translate(-902,-422) scale(1,1)"><path fill="none" stroke="#000000" d="M 1120 768 L 1144.4 768 L 1144.4 783 L 1120 783 L 1120 768 Z Z" stroke-miterlimit="10"/></g><g transform="translate(-902,-422) scale(1,1)"><rect fill="#ffffff" stroke="none" x="1120" y="782" width="61" height="25"/></g><g transform="translate(-902,-422) scale(1,1)"><path fill="none" stroke="#000000" d="M 1120 782 L 1181 782 L 1181 807 L 1120 807 L 1120 782 Z Z" stroke-miterlimit="10"/></g><g transform="translate(-902,-422) scale(1,1)"><g><path fill="none" stroke="none"/><text fill="#000000" stroke="none" font-family="Arial" font-size="13px" font-style="normal" font-weight="bold" text-decoration="none" x="1126" y="802.5">iOS App</text></g></g><g transform="translate(-902,-422) scale(1,1)"><path fill="none" stroke="#000000" d="M 1155 767 L 1195 616" stroke-miterlimit="10" stroke-dasharray="3"/></g><g transform="translate(-902,-422) scale(1,1)"><path fill="none" stroke="#000000" d="M 1196.466825653563 626.9017623576214 L 1195 616 L 1188.3284922764947 624.7459124564111" stroke-miterlimit="10"/></g><g transform="translate(-902,-422) scale(1,1)"><path fill="none" stroke="#000000" d="M 1119 771 L 1005 712" stroke-miterlimit="10" stroke-dasharray="3"/></g><g transform="translate(-902,-422) scale(1,1)"><path fill="none" stroke="#000000" d="M 1015.9603938291576 712.9326130546816 L 1005 712 L 1012.0907117858841 720.409625816261" stroke-miterlimit="10"/></g><g transform="translate(-902,-422) scale(1,1)"><path fill="none" stroke="#000000" d="M 1133 767 L 978 584" stroke-miterlimit="10" stroke-dasharray="3"/></g><g transform="translate(-902,-422) scale(1,1)"><path fill="none" stroke="#000000" d="M 987.7804555769906 589.0341522331485 L 978 584 L 981.3561432799992 594.4755096431685" stroke-miterlimit="10"/></g><g transform="translate(-902,-422) scale(1,1)"><path fill="none" stroke="#000000" d="M 1139 767 L 978 472" stroke-miterlimit="10" stroke-dasharray="3"/></g><g transform="translate(-902,-422) scale(1,1)"><path fill="none" stroke="#000000" d="M 986.5635752674291 478.90399729425474 L 978 472 L 979.1734988387394 482.9372254468616" stroke-miterlimit="10"/></g><g transform="translate(-902,-422) scale(1,1)"><path fill="none" stroke="#000000" d="M 964 671 L 961 584" stroke-miterlimit="10" stroke-dasharray="3"/></g><g transform="translate(-902,-422) scale(1,1)"><path fill="none" stroke="#000000" d="M 965.5572462039613 594.0115686601292 L 961 584 L 957.1432116044656 594.3017077842497" stroke-miterlimit="10"/></g><g transform="translate(-902,-422) scale(1,1)"><path fill="none" stroke="#000000" d="M 961 543 L 966 472" stroke-miterlimit="10" stroke-dasharray="3"/></g><g transform="translate(-902,-422) scale(1,1)"><path fill="none" stroke="#000000" d="M 969.4852049695293 482.43328070744616 L 966 472 L 961.0869685295212 481.84185560603714" stroke-miterlimit="10"/></g><g transform="translate(-902,-422) scale(1,1)"><path fill="none" stroke="#000000" d="M 1135 586 L 1009 570" stroke-miterlimit="10" stroke-dasharray="3"/></g><g transform="translate(-902,-422) scale(1,1)"><path fill="none" stroke="#000000" d="M 1019.6119998693188 567.104234337247 L 1009 570 L 1018.5514326064058 575.4562015326862" stroke-miterlimit="10"/></g><g transform="translate(-902,-422) scale(1,1)"><path fill="none" stroke="#000000" d="M 1168 575 L 1001 472" stroke-miterlimit="10" stroke-dasharray="3"/></g><g transform="translate(-902,-422) scale(1,1)"><path fill="none" stroke="#000000" d="M 1011.8595744660415 473.7520395019801 L 1001 472 L 1007.4399997329814 480.9177577584951" stroke-miterlimit="10"/></g><g transform="translate(-902,-422) scale(1,1)"><rect fill="#C0C0C0" stroke="none" x="1327" y="583" width="47.200000000000045" height="15" opacity="0.2"/></g><g transform="translate(-902,-422) scale(1,1)"><rect fill="#C0C0C0" stroke="none" x="1327" y="597" width="118" height="25" opacity="0.2"/></g><g transform="translate(-902,-422) scale(1,1)"><rect fill="#ffffff" stroke="none" x="1320" y="591" width="118" height="24"/></g><g transform="translate(-902,-422) scale(1,1)"><path fill="none" stroke="#000000" d="M 1320 591 L 1438 591 L 1438 615 L 1320 615 L 1320 591 Z Z" stroke-miterlimit="10"/></g><g transform="translate(-902,-422) scale(1,1)"><rect fill="#ffffff" stroke="none" x="1320" y="576" width="47.200000000000045" height="15"/></g><g transform="translate(-902,-422) scale(1,1)"><path fill="none" stroke="#000000" d="M 1320 576 L 1367.2 576 L 1367.2 591 L 1320 591 L 1320 576 Z Z" stroke-miterlimit="10"/></g><g transform="translate(-902,-422) scale(1,1)"><rect fill="#ffffff" stroke="none" x="1320" y="590" width="118" height="25"/></g><g transform="translate(-902,-422) scale(1,1)"><path fill="none" stroke="#000000" d="M 1320 590 L 1438 590 L 1438 615 L 1320 615 L 1320 590 Z Z" stroke-miterlimit="10"/></g><g transform="translate(-902,-422) scale(1,1)"><g><path fill="none" stroke="none"/><text fill="#000000" stroke="none" font-family="Arial" font-size="13px" font-style="normal" font-weight="bold" text-decoration="none" x="1329.5" y="610.5">ThirdPartyLibrary</text></g></g><g transform="translate(-902,-422) scale(1,1)"><path fill="none" stroke="#000000" d="M 1266 595 L 1319 595" stroke-miterlimit="10" stroke-dasharray="3"/></g><g transform="translate(-902,-422) scale(1,1)"><path fill="none" stroke="#000000" d="M 1308.837325142376 599.209517756016 L 1319 595 L 1308.837325142376 590.790482243984" stroke-miterlimit="10"/></g></g></svg>