<svg version="1.1" xmlns="http://www.w3.org/2000/svg" xmlns:xlink="http://www.w3.org/1999/xlink" width="1099" height="619"><defs/><g><g transform="translate(-318,-174) scale(1,1)"><rect fill="#C0C0C0" stroke="none" x="575" y="415" width="79.33515624999995" height="15" opacity="0.2"/></g><g transform="translate(-318,-174) scale(1,1)"><rect fill="#C0C0C0" stroke="none" x="575" y="429" width="198.337890625" height="25" opacity="0.2"/></g><g transform="translate(-318,-174) scale(1,1)"><rect fill="#ffffff" stroke="none" x="568" y="423" width="198.337890625" height="24"/></g><g transform="translate(-318,-174) scale(1,1)"><path fill="none" stroke="#000000" d="M 568 423 L 766.337890625 423 L 766.337890625 447 L 568 447 L 568 423 Z Z" stroke-miterlimit="10"/></g><g transform="translate(-318,-174) scale(1,1)"><rect fill="#ffffff" stroke="none" x="568" y="408" width="79.33515624999995" height="15"/></g><g transform="translate(-318,-174) scale(1,1)"><path fill="none" stroke="#000000" d="M 568 408 L 647.33515625 408 L 647.33515625 423 L 568 423 L 568 408 Z Z" stroke-miterlimit="10"/></g><g transform="translate(-318,-174) scale(1,1)"><rect fill="#ffffff" stroke="none" x="568" y="422" width="198.337890625" height="25"/></g><g transform="translate(-318,-174) scale(1,1)"><path fill="none" stroke="#000000" d="M 568 422 L 766.337890625 422 L 766.337890625 447 L 568 447 L 568 422 Z Z" stroke-miterlimit="10"/></g><g transform="translate(-318,-174) scale(1,1)"><g><path fill="none" stroke="none"/><text fill="#000000" stroke="none" font-family="Arial" font-size="13px" font-style="normal" font-weight="bold" text-decoration="none" x="584.1689453125" y="442.5">IdentityAccessDomainModel</text></g></g><g transform="translate(-318,-174) scale(1,1)"><rect fill="#C0C0C0" stroke="none" x="687" y="751" width="93.95761718749998" height="15" opacity="0.2"/></g><g transform="translate(-318,-174) scale(1,1)"><rect fill="#C0C0C0" stroke="none" x="687" y="765" width="234.89404296875" height="25" opacity="0.2"/></g><g transform="translate(-318,-174) scale(1,1)"><rect fill="#ffffff" stroke="none" x="680" y="759" width="234.89404296875" height="24"/></g><g transform="translate(-318,-174) scale(1,1)"><path fill="none" stroke="#000000" d="M 680 759 L 914.89404296875 759 L 914.89404296875 783 L 680 783 L 680 759 Z Z" stroke-miterlimit="10"/></g><g transform="translate(-318,-174) scale(1,1)"><rect fill="#ffffff" stroke="none" x="680" y="744" width="93.95761718749998" height="15"/></g><g transform="translate(-318,-174) scale(1,1)"><path fill="none" stroke="#000000" d="M 680 744 L 773.9576171875 744 L 773.9576171875 759 L 680 759 L 680 744 Z Z" stroke-miterlimit="10"/></g><g transform="translate(-318,-174) scale(1,1)"><rect fill="#ffffff" stroke="none" x="680" y="758" width="234.89404296875" height="25"/></g><g transform="translate(-318,-174) scale(1,1)"><path fill="none" stroke="#000000" d="M 680 758 L 914.89404296875 758 L 914.89404296875 783 L 680 783 L 680 758 Z Z" stroke-miterlimit="10"/></g><g transform="translate(-318,-174) scale(1,1)"><g><path fill="none" stroke="none"/><text fill="#000000" stroke="none" font-family="Arial" font-size="13px" font-style="normal" font-weight="bold" text-decoration="none" x="697.947021484375" y="778.5">IdentityAccessDomainModelTests</text></g></g><g transform="translate(-318,-174) scale(1,1)"><rect fill="#C0C0C0" stroke="none" x="871" y="519" width="87.55410156250002" height="15" opacity="0.2"/></g><g transform="translate(-318,-174) scale(1,1)"><rect fill="#C0C0C0" stroke="none" x="871" y="533" width="218.88525390625" height="25" opacity="0.2"/></g><g transform="translate(-318,-174) scale(1,1)"><rect fill="#ffffff" stroke="none" x="864" y="527" width="218.88525390625" height="24"/></g><g transform="translate(-318,-174) scale(1,1)"><path fill="none" stroke="#000000" d="M 864 527 L 1082.88525390625 527 L 1082.88525390625 551 L 864 551 L 864 527 Z Z" stroke-miterlimit="10"/></g><g transform="translate(-318,-174) scale(1,1)"><rect fill="#ffffff" stroke="none" x="864" y="512" width="87.55410156250002" height="15"/></g><g transform="translate(-318,-174) scale(1,1)"><path fill="none" stroke="#000000" d="M 864 512 L 951.5541015625 512 L 951.5541015625 527 L 864 527 L 864 512 Z Z" stroke-miterlimit="10"/></g><g transform="translate(-318,-174) scale(1,1)"><rect fill="#ffffff" stroke="none" x="864" y="526" width="218.88525390625" height="25"/></g><g transform="translate(-318,-174) scale(1,1)"><path fill="none" stroke="#000000" d="M 864 526 L 1082.88525390625 526 L 1082.88525390625 551 L 864 551 L 864 526 Z Z" stroke-miterlimit="10"/></g><g transform="translate(-318,-174) scale(1,1)"><g><path fill="none" stroke="none"/><text fill="#000000" stroke="none" font-family="Arial" font-size="13px" font-style="normal" font-weight="bold" text-decoration="none" x="881.942626953125" y="546.5">IdentityAccessImplementations</text></g></g><g transform="translate(-318,-174) scale(1,1)"><rect fill="#C0C0C0" stroke="none" x="599" y="591" width="60.1982421875" height="15" opacity="0.2"/></g><g transform="translate(-318,-174) scale(1,1)"><rect fill="#C0C0C0" stroke="none" x="599" y="605" width="150.49560546875" height="25" opacity="0.2"/></g><g transform="translate(-318,-174) scale(1,1)"><rect fill="#ffffff" stroke="none" x="592" y="599" width="150.49560546875" height="24"/></g><g transform="translate(-318,-174) scale(1,1)"><path fill="none" stroke="#000000" d="M 592 599 L 742.49560546875 599 L 742.49560546875 623 L 592 623 L 592 599 Z Z" stroke-miterlimit="10"/></g><g transform="translate(-318,-174) scale(1,1)"><rect fill="#ffffff" stroke="none" x="592" y="584" width="60.1982421875" height="15"/></g><g transform="translate(-318,-174) scale(1,1)"><path fill="none" stroke="#000000" d="M 592 584 L 652.1982421875 584 L 652.1982421875 599 L 592 599 L 592 584 Z Z" stroke-miterlimit="10"/></g><g transform="translate(-318,-174) scale(1,1)"><rect fill="#ffffff" stroke="none" x="592" y="598" width="150.49560546875" height="25"/></g><g transform="translate(-318,-174) scale(1,1)"><path fill="none" stroke="#000000" d="M 592 598 L 742.49560546875 598 L 742.49560546875 623 L 592 623 L 592 598 Z Z" stroke-miterlimit="10"/></g><g transform="translate(-318,-174) scale(1,1)"><g><path fill="none" stroke="none"/><text fill="#000000" stroke="none" font-family="Arial" font-size="13px" font-style="normal" font-weight="bold" text-decoration="none" x="605.747802734375" y="618.5">CommonTestSupport</text></g></g><g transform="translate(-318,-174) scale(1,1)"><path fill="none" stroke="#000000" d="M 812 743 L 957 552" stroke-miterlimit="10" stroke-dasharray="3"/></g><g transform="translate(-318,-174) scale(1,1)"><path fill="none" stroke="#000000" d="M 954.2078459038833 562.639730988307 L 957 552 L 947.5022229726856 557.5490748363505" stroke-miterlimit="10"/></g><g transform="translate(-318,-174) scale(1,1)"><path fill="none" stroke="#000000" d="M 789 743 L 675 448" stroke-miterlimit="10" stroke-dasharray="3"/></g><g transform="translate(-318,-174) scale(1,1)"><path fill="none" stroke="#000000" d="M 682.5897847449753 455.9621082336866 L 675 448 L 674.7367275363372 458.9968489854993" stroke-miterlimit="10"/></g><g transform="translate(-318,-174) scale(1,1)"><path fill="none" stroke="#000000" d="M 781 743 L 684 624" stroke-miterlimit="10" stroke-dasharray="3"/></g><g transform="translate(-318,-174) scale(1,1)"><path fill="none" stroke="#000000" d="M 693.6838282266593 629.217611606526 L 684 624 L 687.1580920583443 634.5369091554887" stroke-miterlimit="10"/></g><g transform="translate(-318,-174) scale(1,1)"><rect fill="#C0C0C0" stroke="none" x="959" y="743" width="91.59999999999991" height="15" opacity="0.2"/></g><g transform="translate(-318,-174) scale(1,1)"><rect fill="#C0C0C0" stroke="none" x="959" y="757" width="229" height="25" opacity="0.2"/></g><g transform="translate(-318,-174) scale(1,1)"><rect fill="#ffffff" stroke="none" x="952" y="751" width="229" height="24"/></g><g transform="translate(-318,-174) scale(1,1)"><path fill="none" stroke="#000000" d="M 952 751 L 1181 751 L 1181 775 L 952 775 L 952 751 Z Z" stroke-miterlimit="10"/></g><g transform="translate(-318,-174) scale(1,1)"><rect fill="#ffffff" stroke="none" x="952" y="736" width="91.59999999999991" height="15"/></g><g transform="translate(-318,-174) scale(1,1)"><path fill="none" stroke="#000000" d="M 952 736 L 1043.6 736 L 1043.6 751 L 952 751 L 952 736 Z Z" stroke-miterlimit="10"/></g><g transform="translate(-318,-174) scale(1,1)"><rect fill="#ffffff" stroke="none" x="952" y="750" width="229" height="25"/></g><g transform="translate(-318,-174) scale(1,1)"><path fill="none" stroke="#000000" d="M 952 750 L 1181 750 L 1181 775 L 952 775 L 952 750 Z Z" stroke-miterlimit="10"/></g><g transform="translate(-318,-174) scale(1,1)"><g><path fill="none" stroke="none"/><text fill="#000000" stroke="none" font-family="Arial" font-size="13px" font-style="normal" font-weight="bold" text-decoration="none" x="962" y="770.5">IdentityAccessImplementationTests</text></g></g><g transform="translate(-318,-174) scale(1,1)"><path fill="none" stroke="#000000" d="M 1058 735 L 982 552" stroke-miterlimit="10" stroke-dasharray="3"/></g><g transform="translate(-318,-174) scale(1,1)"><path fill="none" stroke="#000000" d="M 989.7853850546015 559.7709574411128 L 982 552 L 982.0102018633343 562.9999952691801" stroke-miterlimit="10"/></g><g transform="translate(-318,-174) scale(1,1)"><rect fill="#C0C0C0" stroke="none" x="1215" y="519" width="66.40000000000009" height="15" opacity="0.2"/></g><g transform="translate(-318,-174) scale(1,1)"><rect fill="#C0C0C0" stroke="none" x="1215" y="533" width="166" height="25" opacity="0.2"/></g><g transform="translate(-318,-174) scale(1,1)"><rect fill="#ffffff" stroke="none" x="1208" y="527" width="166" height="24"/></g><g transform="translate(-318,-174) scale(1,1)"><path fill="none" stroke="#000000" d="M 1208 527 L 1374 527 L 1374 551 L 1208 551 L 1208 527 Z Z" stroke-miterlimit="10"/></g><g transform="translate(-318,-174) scale(1,1)"><rect fill="#ffffff" stroke="none" x="1208" y="512" width="66.40000000000009" height="15"/></g><g transform="translate(-318,-174) scale(1,1)"><path fill="none" stroke="#000000" d="M 1208 512 L 1274.4 512 L 1274.4 527 L 1208 527 L 1208 512 Z Z" stroke-miterlimit="10"/></g><g transform="translate(-318,-174) scale(1,1)"><rect fill="#ffffff" stroke="none" x="1208" y="526" width="166" height="25"/></g><g transform="translate(-318,-174) scale(1,1)"><path fill="none" stroke="#000000" d="M 1208 526 L 1374 526 L 1374 551 L 1208 551 L 1208 526 Z Z" stroke-miterlimit="10"/></g><g transform="translate(-318,-174) scale(1,1)"><g><path fill="none" stroke="none"/><text fill="#000000" stroke="none" font-family="Arial" font-size="13px" font-style="normal" font-weight="bold" text-decoration="none" x="1217" y="546.5">IdentityAccessIntegration</text></g></g><g transform="translate(-318,-174) scale(1,1)"><rect fill="#C0C0C0" stroke="none" x="1215" y="743" width="79.59999999999991" height="15" opacity="0.2"/></g><g transform="translate(-318,-174) scale(1,1)"><rect fill="#C0C0C0" stroke="none" x="1215" y="757" width="199" height="25" opacity="0.2"/></g><g transform="translate(-318,-174) scale(1,1)"><rect fill="#ffffff" stroke="none" x="1208" y="751" width="199" height="24"/></g><g transform="translate(-318,-174) scale(1,1)"><path fill="none" stroke="#000000" d="M 1208 751 L 1407 751 L 1407 775 L 1208 775 L 1208 751 Z Z" stroke-miterlimit="10"/></g><g transform="translate(-318,-174) scale(1,1)"><rect fill="#ffffff" stroke="none" x="1208" y="736" width="79.59999999999991" height="15"/></g><g transform="translate(-318,-174) scale(1,1)"><path fill="none" stroke="#000000" d="M 1208 736 L 1287.6 736 L 1287.6 751 L 1208 751 L 1208 736 Z Z" stroke-miterlimit="10"/></g><g transform="translate(-318,-174) scale(1,1)"><rect fill="#ffffff" stroke="none" x="1208" y="750" width="199" height="25"/></g><g transform="translate(-318,-174) scale(1,1)"><path fill="none" stroke="#000000" d="M 1208 750 L 1407 750 L 1407 775 L 1208 775 L 1208 750 Z Z" stroke-miterlimit="10"/></g><g transform="translate(-318,-174) scale(1,1)"><g><path fill="none" stroke="none"/><text fill="#000000" stroke="none" font-family="Arial" font-size="13px" font-style="normal" font-weight="bold" text-decoration="none" x="1217" y="770.5">IdentityAccessIntegrationTests</text></g></g><g transform="translate(-318,-174) scale(1,1)"><path fill="none" stroke="#000000" d="M 1306 735 L 1293 552" stroke-miterlimit="10" stroke-dasharray="3"/></g><g transform="translate(-318,-174) scale(1,1)"><path fill="none" stroke="#000000" d="M 1297.9190601724374 561.8388437847107 L 1293 552 L 1289.521187645791 562.4354139641993" stroke-miterlimit="10"/></g><g transform="translate(-318,-174) scale(1,1)"><path fill="none" stroke="#000000" d="M 1277 735 L 1004 552" stroke-miterlimit="10" stroke-dasharray="3"/></g><g transform="translate(-318,-174) scale(1,1)"><path fill="none" stroke="#000000" d="M 1014.7854380465529 554.1620189971339 L 1004 552 L 1010.0976780868574 561.1552346747126" stroke-miterlimit="10"/></g><g transform="translate(-318,-174) scale(1,1)"><rect fill="#C0C0C0" stroke="none" x="335" y="479" width="68" height="15" opacity="0.2"/></g><g transform="translate(-318,-174) scale(1,1)"><rect fill="#C0C0C0" stroke="none" x="335" y="493" width="170" height="25" opacity="0.2"/></g><g transform="translate(-318,-174) scale(1,1)"><rect fill="#ffffff" stroke="none" x="328" y="487" width="170" height="24"/></g><g transform="translate(-318,-174) scale(1,1)"><path fill="none" stroke="#000000" d="M 328 487 L 498 487 L 498 511 L 328 511 L 328 487 Z Z" stroke-miterlimit="10"/></g><g transform="translate(-318,-174) scale(1,1)"><rect fill="#ffffff" stroke="none" x="328" y="472" width="68" height="15"/></g><g transform="translate(-318,-174) scale(1,1)"><path fill="none" stroke="#000000" d="M 328 472 L 396 472 L 396 487 L 328 487 L 328 472 Z Z" stroke-miterlimit="10"/></g><g transform="translate(-318,-174) scale(1,1)"><rect fill="#ffffff" stroke="none" x="328" y="486" width="170" height="25"/></g><g transform="translate(-318,-174) scale(1,1)"><path fill="none" stroke="#000000" d="M 328 486 L 498 486 L 498 511 L 328 511 L 328 486 Z Z" stroke-miterlimit="10"/></g><g transform="translate(-318,-174) scale(1,1)"><g><path fill="none" stroke="none"/><text fill="#000000" stroke="none" font-family="Arial" font-size="13px" font-style="normal" font-weight="bold" text-decoration="none" x="337.5" y="506.5">IdentityAccessApplication</text></g></g><g transform="translate(-318,-174) scale(1,1)"><path fill="none" stroke="#000000" d="M 492 471 L 584 448" stroke-miterlimit="10" stroke-dasharray="3"/></g><g transform="translate(-318,-174) scale(1,1)"><path fill="none" stroke="#000000" d="M 575.1617152255172 454.5486427788624 L 584 448 L 573.1197991854035 446.38097861840737" stroke-miterlimit="10"/></g><g transform="translate(-318,-174) scale(1,1)"><rect fill="#C0C0C0" stroke="none" x="439" y="751" width="81.20000000000005" height="15" opacity="0.2"/></g><g transform="translate(-318,-174) scale(1,1)"><rect fill="#C0C0C0" stroke="none" x="439" y="765" width="203" height="25" opacity="0.2"/></g><g transform="translate(-318,-174) scale(1,1)"><rect fill="#ffffff" stroke="none" x="432" y="759" width="203" height="24"/></g><g transform="translate(-318,-174) scale(1,1)"><path fill="none" stroke="#000000" d="M 432 759 L 635 759 L 635 783 L 432 783 L 432 759 Z Z" stroke-miterlimit="10"/></g><g transform="translate(-318,-174) scale(1,1)"><rect fill="#ffffff" stroke="none" x="432" y="744" width="81.20000000000005" height="15"/></g><g transform="translate(-318,-174) scale(1,1)"><path fill="none" stroke="#000000" d="M 432 744 L 513.2 744 L 513.2 759 L 432 759 L 432 744 Z Z" stroke-miterlimit="10"/></g><g transform="translate(-318,-174) scale(1,1)"><rect fill="#ffffff" stroke="none" x="432" y="758" width="203" height="25"/></g><g transform="translate(-318,-174) scale(1,1)"><path fill="none" stroke="#000000" d="M 432 758 L 635 758 L 635 783 L 432 783 L 432 758 Z Z" stroke-miterlimit="10"/></g><g transform="translate(-318,-174) scale(1,1)"><g><path fill="none" stroke="none"/><text fill="#000000" stroke="none" font-family="Arial" font-size="13px" font-style="normal" font-weight="bold" text-decoration="none" x="441.5" y="778.5">IdentityAccessApplicationTests</text></g></g><g transform="translate(-318,-174) scale(1,1)"><path fill="none" stroke="#000000" d="M 524 743 L 422 512" stroke-miterlimit="10" stroke-dasharray="3"/></g><g transform="translate(-318,-174) scale(1,1)"><path fill="none" stroke="#000000" d="M 429.9558558133062 519.5963384783646 L 422 512 L 422.25421714549134 522.9970620459711" stroke-miterlimit="10"/></g><g transform="translate(-318,-174) scale(1,1)"><path fill="none" stroke="#000000" d="M 571 743 L 933 552" stroke-miterlimit="10" stroke-dasharray="3"/></g><g transform="translate(-318,-174) scale(1,1)"><path fill="none" stroke="#000000" d="M 925.9760977477124 560.4655063138781 L 933 552 L 922.0473341662953 553.0193680077367" stroke-miterlimit="10"/></g><g transform="translate(-318,-174) scale(1,1)"><path fill="none" stroke="#000000" d="M 541 743 L 659 448" stroke-miterlimit="10" stroke-dasharray="3"/></g><g transform="translate(-318,-174) scale(1,1)"><path fill="none" stroke="#000000" d="M 659.1341164273886 458.99918236888107 L 659 448 L 651.3172381947317 455.8724310758183" stroke-miterlimit="10"/></g><g transform="translate(-318,-174) scale(1,1)"><path fill="none" stroke="#000000" d="M 550 743 L 649 624" stroke-miterlimit="10" stroke-dasharray="3"/></g><g transform="translate(-318,-174) scale(1,1)"><path fill="none" stroke="#000000" d="M 645.7365428903407 634.5047535760442 L 649 624 L 639.2644048593339 629.120369835963" stroke-miterlimit="10"/></g><g transform="translate(-318,-174) scale(1,1)"><rect fill="#C0C0C0" stroke="none" x="933" y="355" width="34.39999999999998" height="15" opacity="0.2"/></g><g transform="translate(-318,-174) scale(1,1)"><rect fill="#C0C0C0" stroke="none" x="933" y="369" width="86" height="25" opacity="0.2"/></g><g transform="translate(-318,-174) scale(1,1)"><rect fill="#ffffff" stroke="none" x="926" y="363" width="86" height="24"/></g><g transform="translate(-318,-174) scale(1,1)"><path fill="none" stroke="#000000" d="M 926 363 L 1012 363 L 1012 387 L 926 387 L 926 363 Z Z" stroke-miterlimit="10"/></g><g transform="translate(-318,-174) scale(1,1)"><rect fill="#ffffff" stroke="none" x="926" y="348" width="34.39999999999998" height="15"/></g><g transform="translate(-318,-174) scale(1,1)"><path fill="none" stroke="#000000" d="M 926 348 L 960.4 348 L 960.4 363 L 926 363 L 926 348 Z Z" stroke-miterlimit="10"/></g><g transform="translate(-318,-174) scale(1,1)"><rect fill="#ffffff" stroke="none" x="926" y="362" width="86" height="25"/></g><g transform="translate(-318,-174) scale(1,1)"><path fill="none" stroke="#000000" d="M 926 362 L 1012 362 L 1012 387 L 926 387 L 926 362 Z Z" stroke-miterlimit="10"/></g><g transform="translate(-318,-174) scale(1,1)"><g><path fill="none" stroke="none"/><text fill="#000000" stroke="none" font-family="Arial" font-size="13px" font-style="normal" font-weight="bold" text-decoration="none" x="933" y="382.5">EthereumKit</text></g></g><g transform="translate(-318,-174) scale(1,1)"><path fill="none" stroke="#000000" d="M 973 511 L 970 388" stroke-miterlimit="10" stroke-dasharray="3"/></g><g transform="translate(-318,-174) scale(1,1)"><path fill="none" stroke="#000000" d="M 974.456062651372 398.05701275961445 L 970 388 L 966.0395301973742 398.26229403898026" stroke-miterlimit="10"/></g><g transform="translate(-318,-174) scale(1,1)"><rect fill="#C0C0C0" stroke="none" x="895" y="271" width="19.600000000000023" height="15" opacity="0.2"/></g><g transform="translate(-318,-174) scale(1,1)"><rect fill="#C0C0C0" stroke="none" x="895" y="285" width="49" height="25" opacity="0.2"/></g><g transform="translate(-318,-174) scale(1,1)"><rect fill="#ffffff" stroke="none" x="888" y="279" width="49" height="24"/></g><g transform="translate(-318,-174) scale(1,1)"><path fill="none" stroke="#000000" d="M 888 279 L 937 279 L 937 303 L 888 303 L 888 279 Z Z" stroke-miterlimit="10"/></g><g transform="translate(-318,-174) scale(1,1)"><rect fill="#ffffff" stroke="none" x="888" y="264" width="19.600000000000023" height="15"/></g><g transform="translate(-318,-174) scale(1,1)"><path fill="none" stroke="#000000" d="M 888 264 L 907.6 264 L 907.6 279 L 888 279 L 888 264 Z Z" stroke-miterlimit="10"/></g><g transform="translate(-318,-174) scale(1,1)"><rect fill="#ffffff" stroke="none" x="888" y="278" width="49" height="25"/></g><g transform="translate(-318,-174) scale(1,1)"><path fill="none" stroke="#000000" d="M 888 278 L 937 278 L 937 303 L 888 303 L 888 278 Z Z" stroke-miterlimit="10"/></g><g transform="translate(-318,-174) scale(1,1)"><g><path fill="none" stroke="none"/><text fill="#000000" stroke="none" font-family="Arial" font-size="13px" font-style="normal" font-weight="bold" text-decoration="none" x="893.5" y="298.5">APIKit</text></g></g><g transform="translate(-318,-174) scale(1,1)"><path fill="none" stroke="#000000" d="M 955 347 L 926 304" stroke-miterlimit="10" stroke-dasharray="3"/></g><g transform="translate(-318,-174) scale(1,1)"><path fill="none" stroke="#000000" d="M 935.1723688213663 310.0718736980299 L 926 304 L 928.192381126747 314.77930725951734" stroke-miterlimit="10"/></g><g transform="translate(-318,-174) scale(1,1)"><rect fill="#C0C0C0" stroke="none" x="903" y="191" width="19.600000000000023" height="15" opacity="0.2"/></g><g transform="translate(-318,-174) scale(1,1)"><rect fill="#C0C0C0" stroke="none" x="903" y="205" width="49" height="25" opacity="0.2"/></g><g transform="translate(-318,-174) scale(1,1)"><rect fill="#ffffff" stroke="none" x="896" y="199" width="49" height="24"/></g><g transform="translate(-318,-174) scale(1,1)"><path fill="none" stroke="#000000" d="M 896 199 L 945 199 L 945 223 L 896 223 L 896 199 Z Z" stroke-miterlimit="10"/></g><g transform="translate(-318,-174) scale(1,1)"><rect fill="#ffffff" stroke="none" x="896" y="184" width="19.600000000000023" height="15"/></g><g transform="translate(-318,-174) scale(1,1)"><path fill="none" stroke="#000000" d="M 896 184 L 915.6 184 L 915.6 199 L 896 199 L 896 184 Z Z" stroke-miterlimit="10"/></g><g transform="translate(-318,-174) scale(1,1)"><rect fill="#ffffff" stroke="none" x="896" y="198" width="49" height="25"/></g><g transform="translate(-318,-174) scale(1,1)"><path fill="none" stroke="#000000" d="M 896 198 L 945 198 L 945 223 L 896 223 L 896 198 Z Z" stroke-miterlimit="10"/></g><g transform="translate(-318,-174) scale(1,1)"><g><path fill="none" stroke="none"/><text fill="#000000" stroke="none" font-family="Arial" font-size="13px" font-style="normal" font-weight="bold" text-decoration="none" x="902" y="218.5">Result</text></g></g><g transform="translate(-318,-174) scale(1,1)"><path fill="none" stroke="#000000" d="M 914 263 L 918 224" stroke-miterlimit="10" stroke-dasharray="3"/></g><g transform="translate(-318,-174) scale(1,1)"><path fill="none" stroke="#000000" d="M 921.1506639430341 234.53913263594612 L 918 224 L 912.7755636846574 233.68014799406134" stroke-miterlimit="10"/></g><g transform="translate(-318,-174) scale(1,1)"><rect fill="#C0C0C0" stroke="none" x="1008" y="267" width="32.40000000000009" height="15" opacity="0.2"/></g><g transform="translate(-318,-174) scale(1,1)"><rect fill="#C0C0C0" stroke="none" x="1008" y="281" width="81" height="25" opacity="0.2"/></g><g transform="translate(-318,-174) scale(1,1)"><rect fill="#ffffff" stroke="none" x="1001" y="275" width="81" height="24"/></g><g transform="translate(-318,-174) scale(1,1)"><path fill="none" stroke="#000000" d="M 1001 275 L 1082 275 L 1082 299 L 1001 299 L 1001 275 Z Z" stroke-miterlimit="10"/></g><g transform="translate(-318,-174) scale(1,1)"><rect fill="#ffffff" stroke="none" x="1001" y="260" width="32.40000000000009" height="15"/></g><g transform="translate(-318,-174) scale(1,1)"><path fill="none" stroke="#000000" d="M 1001 260 L 1033.4 260 L 1033.4 275 L 1001 275 L 1001 260 Z Z" stroke-miterlimit="10"/></g><g transform="translate(-318,-174) scale(1,1)"><rect fill="#ffffff" stroke="none" x="1001" y="274" width="81" height="25"/></g><g transform="translate(-318,-174) scale(1,1)"><path fill="none" stroke="#000000" d="M 1001 274 L 1082 274 L 1082 299 L 1001 299 L 1001 274 Z Z" stroke-miterlimit="10"/></g><g transform="translate(-318,-174) scale(1,1)"><g><path fill="none" stroke="none"/><text fill="#000000" stroke="none" font-family="Arial" font-size="13px" font-style="normal" font-weight="bold" text-decoration="none" x="1008" y="294.5">CryptoSwift</text></g></g><g transform="translate(-318,-174) scale(1,1)"><path fill="none" stroke="#000000" d="M 985 347 L 1024 300" stroke-miterlimit="10" stroke-dasharray="3"/></g><g transform="translate(-318,-174) scale(1,1)"><path fill="none" stroke="#000000" d="M 1020.7498792342428 310.5088874295995 L 1024 300 L 1014.270912002662 305.1327231310537" stroke-miterlimit="10"/></g></g></svg>